<?xml version="1.0" encoding="utf-8"?>
<!-- Generator: Adobe Illustrator 23.0.1, SVG Export Plug-In . SVG Version: 6.00 Build 0)  -->
<svg version="1.1" id="Layer_1" xmlns="http://www.w3.org/2000/svg" xmlns:xlink="http://www.w3.org/1999/xlink" x="0px" y="0px"
	 viewBox="0 0 792 612" style="enable-background:new 0 0 792 612;" xml:space="preserve">
<style type="text/css">
	.st0{fill:#FFFFFF;}
</style>
<path class="st0" d="M342.74,328.52c0,0.47-0.47,0.94-0.94,0.94h-15.95c-0.47,0-0.94-0.47-0.94-0.94v-13.69l-8.37,1.45l-8.37-1.45
	v13.69c0,0.47-0.47,0.94-0.94,0.94h-15.95c-0.47,0-0.94-0.47-0.94-0.94v-45.04c0-0.47,0.47-0.94,0.94-0.94h15.95
	c0.47,0,0.94,0.47,0.94,0.94v16.5l8.37,1.45l8.37-1.45v-16.5c0-0.47,0.47-0.94,0.94-0.94h15.95c0.47,0,0.94,0.47,0.94,0.94V328.52z
	 M384.81,324.38h-16.89l-1.56,4.07c-0.31,0.78-0.7,1.02-1.64,1.02h-17.28c-0.47,0-0.63-0.31-0.63-0.55c0-0.23,0.16-0.55,0.31-0.94
	l20.02-45.43h18.46l20.02,45.43c0.16,0.31,0.31,0.7,0.31,0.94c0,0.23-0.16,0.55-0.63,0.55h-17.28c-0.94,0-1.33-0.23-1.64-1.02
	L384.81,324.38z M372.84,311.47h6.96l-0.39-1.09c-1.17-3.13-2.74-9.07-2.74-9.07h-0.63c0,0-1.56,5.94-2.74,9.07L372.84,311.47z
	 M440.64,283.48c0-0.47,0.47-0.94,0.94-0.94h15.95c0.47,0,0.94,0.47,0.94,0.94V306c0,15.17-9.38,24.24-25.49,24.24
	c-16.03,0-25.49-9.07-25.49-24.24v-22.52c0-0.47,0.47-0.94,0.94-0.94h15.95c0.47,0,0.94,0.47,0.94,0.94v22.13
	c0,6.41,2.89,9.78,7.66,9.78c4.85,0,7.66-3.36,7.66-9.78V283.48z M482.71,314.6h17.99c0.47,0,1.09,0.63,1.09,1.1v12.67
	c0,0.47-0.63,1.1-1.09,1.1h-34.88c-0.47,0-0.94-0.47-0.94-0.94v-45.04c0-0.47,0.47-0.94,0.94-0.94h15.95c0.47,0,0.94,0.47,0.94,0.94
	V314.6z M507.1,277.23v57.53H285.04v-57.53H507.1 M513.64,270.69h-6.54H285.04h-6.54v6.54v57.53v6.54h6.54H507.1h6.54v-6.54v-57.53
	V270.69L513.64,270.69z"/>
</svg>
