<?xml version="1.0" encoding="UTF-8"?>
<svg width="236px" height="72px" viewBox="0 0 236 72" version="1.1" xmlns="http://www.w3.org/2000/svg" xmlns:xlink="http://www.w3.org/1999/xlink">
    <!-- Generator: Sketch 53 (72520) - https://sketchapp.com -->
    <title>haul-logo</title>
    <desc>Created with Sketch.</desc>
    <g id="Page-1" stroke="none" stroke-width="1" fill="none" fill-rule="evenodd">
        <g id="haul-logo" fill="#0099EE" fill-rule="nonzero">
            <path d="M64.74,58.52 C64.74,58.99 64.27,59.46 63.8,59.46 L47.85,59.46 C47.38,59.46 46.91,58.99 46.91,58.52 L46.91,44.83 L38.54,46.28 L30.17,44.83 L30.17,58.52 C30.17,58.99 29.7,59.46 29.23,59.46 L13.28,59.46 C12.81,59.46 12.34,58.99 12.34,58.52 L12.34,13.48 C12.34,13.01 12.81,12.54 13.28,12.54 L29.23,12.54 C29.7,12.54 30.17,13.01 30.17,13.48 L30.17,29.98 L38.54,31.43 L46.91,29.98 L46.91,13.48 C46.91,13.01 47.38,12.54 47.85,12.54 L63.8,12.54 C64.27,12.54 64.74,13.01 64.74,13.48 L64.74,58.52 Z M106.81,54.38 L89.92,54.38 L88.36,58.45 C88.05,59.23 87.66,59.47 86.72,59.47 L69.44,59.47 C68.97,59.47 68.81,59.16 68.81,58.92 C68.81,58.69 68.97,58.37 69.12,57.98 L89.14,12.55 L107.6,12.55 L127.62,57.98 C127.78,58.29 127.93,58.68 127.93,58.92 C127.93,59.15 127.77,59.47 127.3,59.47 L110.02,59.47 C109.08,59.47 108.69,59.24 108.38,58.45 L106.81,54.38 Z M94.84,41.47 L101.8,41.47 L101.41,40.38 C100.24,37.25 98.67,31.31 98.67,31.31 L98.04,31.31 C98.04,31.31 96.48,37.25 95.3,40.38 L94.84,41.47 Z M162.64,13.48 C162.64,13.01 163.11,12.54 163.58,12.54 L179.53,12.54 C180,12.54 180.47,13.01 180.47,13.48 L180.47,36 C180.47,51.17 171.09,60.24 154.98,60.24 C138.95,60.24 129.49,51.17 129.49,36 L129.49,13.48 C129.49,13.01 129.96,12.54 130.43,12.54 L146.38,12.54 C146.85,12.54 147.32,13.01 147.32,13.48 L147.32,35.61 C147.32,42.02 150.21,45.39 154.98,45.39 C159.83,45.39 162.64,42.03 162.64,35.61 L162.64,13.48 Z M204.71,44.6 L222.7,44.6 C223.17,44.6 223.79,45.23 223.79,45.7 L223.79,58.37 C223.79,58.84 223.16,59.47 222.7,59.47 L187.82,59.47 C187.35,59.47 186.88,59 186.88,58.53 L186.88,13.49 C186.88,13.02 187.35,12.55 187.82,12.55 L203.77,12.55 C204.24,12.55 204.71,13.02 204.71,13.49 L204.71,44.6 Z M229.1,7.23 L229.1,64.76 L7.04,64.76 L7.04,7.23 L229.1,7.23 L229.1,7.23 Z M235.64,0.69 L229.1,0.69 L7.04,0.69 L0.5,0.69 L0.5,7.23 L0.5,64.76 L0.5,71.3 L7.04,71.3 L229.1,71.3 L235.64,71.3 L235.64,64.76 L235.64,7.23 L235.64,0.69 L235.64,0.69 Z"></path>
        </g>
    </g>
</svg>